<svg width="60" height="60" viewBox="0 0 60 60" fill="none" xmlns="http://www.w3.org/2000/svg">
<path d="M29.8545 0.5C46.0658 0.5 59.2089 13.661 59.209 29.8975C59.209 46.134 46.0659 59.2949 29.8545 59.2949C13.6431 59.2949 0.5 46.134 0.5 29.8975C0.500058 13.661 13.6432 0.500003 29.8545 0.5Z" stroke="#ED145B"/>
<mask id="path-2-outside-1_3_6" maskUnits="userSpaceOnUse" x="19.8791" y="19.8969" width="20" height="20" fill="black">
<rect fill="white" x="19.8791" y="19.8969" width="20" height="20"/>
<path d="M28.3006 38.0499V21.8439H31.4086V38.0499H28.3006ZM21.5666 31.4269V28.5038H38.1426V31.4269H21.5666Z"/>
</mask>
<path d="M28.3006 38.0499H27.3006V39.0499H28.3006V38.0499ZM28.3006 21.8439V20.8439H27.3006V21.8439H28.3006ZM31.4086 21.8439H32.4086V20.8439H31.4086V21.8439ZM31.4086 38.0499V39.0499H32.4086V38.0499H31.4086ZM21.5666 31.4269H20.5666V32.4269H21.5666V31.4269ZM21.5666 28.5038V27.5038H20.5666V28.5038H21.5666ZM38.1426 28.5038H39.1426V27.5038H38.1426V28.5038ZM38.1426 31.4269V32.4269H39.1426V31.4269H38.1426ZM28.3006 38.0499H29.3006V21.8439H28.3006H27.3006V38.0499H28.3006ZM28.3006 21.8439V22.8439H31.4086V21.8439V20.8439H28.3006V21.8439ZM31.4086 21.8439H30.4086V38.0499H31.4086H32.4086V21.8439H31.4086ZM31.4086 38.0499V37.0499H28.3006V38.0499V39.0499H31.4086V38.0499ZM21.5666 31.4269H22.5666V28.5038H21.5666H20.5666V31.4269H21.5666ZM21.5666 28.5038V29.5038H38.1426V28.5038V27.5038H21.5666V28.5038ZM38.1426 28.5038H37.1426V31.4269H38.1426H39.1426V28.5038H38.1426ZM38.1426 31.4269V30.4269H21.5666V31.4269V32.4269H38.1426V31.4269Z" fill="#ED145B" mask="url(#path-2-outside-1_3_6)"/>
</svg>
